<?xml version="1.0" standalone="no"?>
<!DOCTYPE svg PUBLIC "-//W3C//DTD SVG 20010904//EN"
 "http://www.w3.org/TR/2001/REC-SVG-20010904/DTD/svg10.dtd">
<svg version="1.0" xmlns="http://www.w3.org/2000/svg"
 width="1123.000000pt" height="610.000000pt" viewBox="0 0 1123.000000 610.000000"
 preserveAspectRatio="xMidYMid meet">

<g transform="translate(0.000000,610.000000) scale(0.100000,-0.100000)"
fill="#000000" stroke="none">
<path d="M0 3050 l0 -3050 5615 0 5615 0 0 3050 0 3050 -5615 0 -5615 0 0
-3050z m3997 975 c45 -126 98 -275 118 -330 19 -55 48 -136 64 -180 16 -44 74
-207 128 -362 54 -156 102 -281 107 -280 5 2 35 79 66 173 77 230 441 1197
454 1206 14 10 428 10 443 0 7 -5 15 -81 22 -227 6 -121 13 -263 16 -315 3
-52 10 -189 15 -305 5 -115 17 -352 25 -525 9 -173 20 -403 25 -510 5 -107 15
-305 21 -440 7 -135 13 -294 13 -355 l1 -110 -178 -3 c-137 -2 -178 0 -182 10
-2 7 -9 191 -15 408 -24 873 -60 1944 -66 1949 -10 10 -23 -20 -64 -144 -24
-71 -103 -294 -178 -495 -74 -201 -149 -405 -167 -455 -19 -49 -56 -150 -83
-224 l-49 -133 -132 0 c-73 0 -134 2 -135 4 -1 1 -35 93 -75 203 -104 285
-129 352 -225 613 -47 128 -113 321 -145 429 -33 107 -64 200 -70 206 -8 8
-11 -72 -11 -279 0 -159 -4 -404 -10 -544 -5 -140 -17 -523 -25 -850 -9 -327
-17 -617 -18 -645 l-2 -50 -169 -3 c-93 -1 -174 2 -179 7 -5 5 -4 93 3 217 11
207 21 420 40 809 5 110 17 342 25 515 25 504 33 658 45 950 6 151 13 281 16
288 3 10 53 12 226 10 l223 -3 82 -230z m2708 225 c311 -21 515 -81 700 -205
248 -167 392 -426 450 -810 21 -133 24 -518 6 -640 -40 -275 -115 -474 -243
-653 -99 -137 -209 -232 -360 -308 -273 -138 -497 -174 -1079 -174 l-309 0 0
1393 c0 767 3 1397 7 1400 10 11 661 8 828 -3z m-4543 -537 c60 -59 108 -113
108 -119 0 -7 -177 -157 -392 -335 -216 -178 -465 -382 -553 -455 -88 -73
-171 -141 -185 -152 -14 -11 -23 -22 -20 -25 3 -2 260 -216 572 -476 312 -259
570 -476 574 -482 6 -10 -202 -229 -218 -229 -6 0 -1300 1076 -1390 1156 l-37
33 356 298 c196 164 516 432 712 595 196 164 358 298 361 298 2 0 53 -48 112
-107z m7763 -486 c390 -325 708 -596 707 -600 -2 -9 -1411 -1187 -1420 -1187
-9 0 -222 213 -222 222 0 3 256 218 569 477 314 259 572 475 576 481 3 5 -113
108 -257 228 -340 282 -712 590 -810 671 -43 35 -78 68 -78 74 0 10 210 227
219 227 4 0 325 -267 716 -593z"/>
<path d="M6245 3929 c-3 -8 -4 -491 -3 -1074 l3 -1060 225 0 c289 1 387 19
556 101 224 110 372 331 430 640 22 120 30 445 14 583 -43 372 -166 597 -390
711 -67 34 -168 71 -240 87 -97 21 -587 31 -595 12z"/>
</g>
</svg>
